<?xml version="1.0" encoding="utf-8"?>
<!-- Generator: Adobe Illustrator 16.0.2, SVG Export Plug-In . SVG Version: 6.00 Build 0)  -->
<!DOCTYPE svg PUBLIC "-//W3C//DTD SVG 1.1//EN" "http://www.w3.org/Graphics/SVG/1.1/DTD/svg11.dtd">
<svg viewBox="0 0 24 24" preserveAspectRatio="xMidYMid meet" focusable="false" class="style-scope yt-icon" style="pointer-events: none; display: block; width: 100%; height: 100%;">
	<path stroke="#000000" stroke-miterlimit="10" d="M441,360c0,0,18,0,18-18s0-270,0-270s0-27-27-27S63,45,63,45
	S36,45,36,72v360c0,0,0,36,36,36s360,0,360,0h18c0,0,9,0,9-9s0-9,0-9s0-9-9-9c-1.167,0-7.638,0-18,0v-81
	C437.784,360,441,360,441,360z M414,369H126l0,9h288v9H126v9h288v9H126v9h288v9H126v9h288v9c-86.289,0-297,0-297,0s-18,0-18-18
	s0-45,0-45s0-18,18-18c14.713,0,221.844,0,297,0V369z M414,315c0,18-18,18-18,18s-261,0-279,0s-18-18-18-18V191.601V189
	c0-18,18-18,18-18s261,0,279,0s18,18,18,18C414,243.898,414,305.345,414,315z M414,123.399c0,0.848,0,1.718,0,2.601
	c0,18-18,18-18,18s-261,0-279,0s-18-18-18-18V99c0-18,18-18,18-18s261,0,279,0s18,18,18,18S414,108.447,414,123.399z"/>
</svg>
